<mxfile host="65bd71144e">
    <diagram id="MBymZvRxtM8xUYwRDWeC" name="Lực">
        <mxGraphModel dx="782" dy="499" grid="0" gridSize="10" guides="1" tooltips="1" connect="1" arrows="1" fold="1" page="1" pageScale="1" pageWidth="850" pageHeight="1100" math="0" shadow="0">
            <root>
                <mxCell id="0"/>
                <mxCell id="1" parent="0"/>
                <mxCell id="11" style="edgeStyle=orthogonalEdgeStyle;rounded=0;orthogonalLoop=1;jettySize=auto;html=1;exitX=1;exitY=0.3333333333333333;exitDx=0;exitDy=0;exitPerimeter=0;" edge="1" parent="1" source="5" target="8">
                    <mxGeometry relative="1" as="geometry"/>
                </mxCell>
                <mxCell id="5" value="Admin" style="shape=umlActor;verticalLabelPosition=bottom;verticalAlign=top;html=1;" vertex="1" parent="1">
                    <mxGeometry x="76" y="164" width="30" height="60" as="geometry"/>
                </mxCell>
                <mxCell id="8" value="Quản lý&#10;nhân viên" style="ellipse;" vertex="1" parent="1">
                    <mxGeometry x="166" y="148" width="92" height="71" as="geometry"/>
                </mxCell>
            </root>
        </mxGraphModel>
    </diagram>
    <diagram id="cq-0QNQBgfJYrv0yeehn" name="BoudtalathThony">
        <mxGraphModel dx="582" dy="488" grid="0" gridSize="10" guides="1" tooltips="1" connect="1" arrows="1" fold="1" page="1" pageScale="1" pageWidth="850" pageHeight="1100" math="0" shadow="0">
            <root>
                <mxCell id="xrmBL7LU7wHZcjQJuUZu-0"/>
                <mxCell id="xrmBL7LU7wHZcjQJuUZu-1" parent="xrmBL7LU7wHZcjQJuUZu-0"/>
            </root>
        </mxGraphModel>
    </diagram>
    <diagram id="gHBJQwNksDiVbukLFJCc" name="Vĩ">
        <mxGraphModel dx="582" dy="488" grid="0" gridSize="10" guides="1" tooltips="1" connect="1" arrows="1" fold="1" page="1" pageScale="1" pageWidth="850" pageHeight="1100" math="0" shadow="0">
            <root>
                <mxCell id="HiKb6j0GPG9d507MoiXi-0"/>
                <mxCell id="HiKb6j0GPG9d507MoiXi-1" parent="HiKb6j0GPG9d507MoiXi-0"/>
            </root>
        </mxGraphModel>
    </diagram>
</mxfile>